<svg xmlns="http://www.w3.org/2000/svg" xmlns:xlink="http://www.w3.org/1999/xlink" width="200" height="200" class="icon" p-id="5328" t="1781885506355" version="1.1" viewBox="0 0 1024 1024"><path fill="#2c2c2c" d="M921.72288 272.09728H821.4528v-48.5376h-0.45056v-25.1904c0-15.36-11.44832-27.70944-25.64096-27.70944s-25.64096 12.36992-25.64096 27.70944v25.3952H254.7712v-25.3952c0-15.36-11.6736-27.70944-26.112-27.70944-14.41792 0-26.09152 12.36992-26.09152 27.70944v73.728H101.7856c-9.13408 0-16.46592 8.704-16.46592 19.456v15.5648c0 10.5472 7.33184 19.2512 16.4864 19.2512H202.5472v74.40384c0 15.33952 11.6736 27.70944 26.09152 27.70944 14.4384 0 26.112-12.36992 26.112-27.70944V327.4752h240.16896c-17.53088 3.072-36.57728 12.5952-51.03616 19.82464-4.99712 2.47808-9.4208 4.7104-13.06624 6.28736-48.5376 27.70944-73.03168 23.3472-73.03168 23.3472h-51.75296l-42.35264 72.35584s30.90432 0 89.74336-0.9216c59.76064 15.36 88.61696 61.82912 95.92832 84.50048 7.33184 41.20576 22.67136 45.32224 36.18816 47.39072 9.37984 19.456-11.4688 16.4864-11.4688 16.4864l2.06848 37.9904h-66.39616v151.81824h205.39392v-151.79776h-67.54304l2.048-38.01088s-20.60288 3.19488-11.44832-16.4864c13.5168-2.048 28.85632-6.18496 36.18816-47.39072 7.31136-22.67136 36.16768-68.93568 95.92832-84.50048 58.83904 0.9216 89.74336 0.9216 89.74336 0.9216l-41.43104-72.35584h-51.52768s-25.64096 15.79008-73.9328-12.12416c-5.3248-2.33472-12.41088-7.168-20.43904-12.67712-14.11072-9.66656-31.10912-21.2992-46.42816-24.65792h243.83488v73.27744c0 15.33952 11.4688 27.70944 25.64096 27.70944 14.21312 0 25.64096-12.36992 25.64096-27.70944V327.4752h0.47104v-1.14688h100.29056c9.15456 0 16.46592-8.68352 16.46592-19.456v-15.33952c-0.45056-10.752-7.7824-19.456-16.93696-19.456z m-432.9472 415.55968h-40.5504v-26.33728h40.5504v26.33728z m81.96096 17.85856c0 19.456-14.88896 35.0208-32.9728 35.0208-18.3296 0-32.9728-15.7696-32.9728-35.0208 0-19.456 14.88896-35.0208 32.9728-35.0208 18.08384 0 32.9728 15.7696 32.9728 35.0208z" p-id="5329"/><path fill="#2c2c2c" d="M723.456 493.28128s-13.5168-13.06624-30.0032-10.07616c-13.5168 2.9696-36.16768 23.12192-7.31136 47.39072 22.69184 27.29984 122.69568 147.49696 83.5584 299.9296 10.30144 12.14464 60.90752 18.10432 50.5856-19.23072 0.1024-3.072 0.3072-6.94272 0.53248-11.4688 2.68288-54.00576 10.17856-203.8784-97.36192-306.54464zM300.76928 493.28128s13.5168-13.06624 29.98272-10.07616c13.5168 2.9696 36.18816 23.3472 7.33184 47.616-22.71232 27.29984-122.71616 147.49696-83.5584 299.95008-10.32192 12.12416-60.90752 18.08384-50.60608-19.2512-0.1024-3.13344-0.28672-7.04512-0.512-11.63264-2.70336-54.43584-10.1376-204.1856 97.36192-306.60608z" p-id="5330"/></svg>